<?xml version="1.0" encoding="utf-8"?>
<!-- Generator: Adobe Illustrator 24.2.1, SVG Export Plug-In . SVG Version: 6.00 Build 0)  -->
<svg version="1.1" id="Layer_1" xmlns="http://www.w3.org/2000/svg" xmlns:xlink="http://www.w3.org/1999/xlink" x="0px" y="0px"
	 viewBox="0 0 486.73 918.62" style="enable-background:new 0 0 486.73 918.62;" xml:space="preserve">
<style type="text/css">
	.st0{fill:#363A51;}
</style>
<path id="Path_5" class="st0" d="M417.93,894.08c0.15,0,0.3-0.03,0.44-0.08c1.31-0.51,0.8-1.99-0.55-5.93
	c-2.5-7.28-7.71-22.43-5.49-41.33c0.95-8.12,2.59-12.02,6.54-21.45c1.73-4.14,3.89-9.28,6.61-16.28c5.92-15,11.05-30.3,15.39-45.84
	c4.29-16.06,4.08-21.71,2.9-23.83c0.7-3.46,1.22-6.96,1.56-10.48c1.65-16.92-1.1-32.64-6.02-47.15
	c-4.01-27.93-12.19-65.37-23.89-98.92c-11.58-33.22-30.4-73.16-54.25-74.77c-3-0.1-6-0.05-8.99,0.15
	c-4.62-4.94-9.74-9.39-15.28-13.28c-0.32-0.22-0.64-0.43-0.98-0.65c-2.79-14.87-4.05-35.29,0.82-59.98
	c0.97-4.94,2.17-9.81,3.58-14.6c2.19,4.18,4.94,7.57,6.82,7.57c0.12,0,0.23-0.01,0.35-0.04c1.23-0.3,1.06-1.85,0.68-5.24
	c-0.29-2.61-0.9-8.04,0.35-8.68c1.03-0.52,4.13,2.39,5.99,4.14c2.76,2.59,4.95,4.64,6.57,3.67c1.87-1.12,0.84-4.99-0.94-10.77
	l-0.16-0.52c1.79,2.94,4.33,7.55,6.38,11.26c1.78,3.23,3.46,6.27,4.79,8.55c2.09,3.57,2.75,4.41,3.72,3.96
	c0.92-0.42,0.57-1.55,0.26-2.54c-0.28-0.89-0.73-2.15-1.31-3.75c-1.51-4.2-3.79-10.56-5.99-18.58c-0.79-2.86-1.46-5.55-2.01-7.96
	c5.33,17.61,8.74,26.45,12.09,25.97c1.79-0.26,2.88-2.83,3.52-8.37c0.22-1.85,0.36-3.98,0.44-6.2c1.66,2.29,3.82,4.16,6.33,5.47
	c4.59,2.3,10.96,2.5,16.61,0.52c4.4-1.54,7.74-4.2,9.16-7.3c0.81-1.87,1.1-3.93,0.84-5.95c3.19,5.04,4.1,5.48,5.02,5.09
	c1.06-0.45,1.2-1.78-0.79-8.47c-1.14-3.83-2.61-8.15-3.41-10.47l-0.33-0.97c-4.16-12.77-6.67-26.03-7.47-39.43
	c4.43-20.16,8.72-41.56,10.49-69.58c1.02-14.87,0.91-29.79-0.33-44.64c5.83-3.6,10.51-8.81,13.47-14.99
	c0.2-0.42,4.77-10.4,3.95-27.72c-0.04-0.74,0-1.48,0.03-2.27c0.08-1.09,0.06-2.18-0.04-3.27c-0.02-0.16-0.04-0.31-0.06-0.45
	c-0.12-0.9-0.18-1.47,0.05-1.73c0.12-0.13,0.28-0.15,0.8-0.16c0.6,0.03,1.19-0.09,1.73-0.35c1.16-0.62,1.95-2.21,2.18-4.36
	c0.34-3.21-0.61-7.54-3.49-9.95c-1.07-0.88-2.34-1.48-3.7-1.77c-1.5-0.36-2.92-0.7-4.25-1.03c-0.98-0.77-2.05-1.52-3.19-2.24
	c-0.01-1.81-0.04-3.71-0.11-5.71c-0.73-20.16-4.31-40.12-10.62-59.28c-10.72-32.32-22.57-49.33-35.2-50.57
	c-2.08-3.15-4.51-6.06-7.23-8.68c-15.33-14.72-36.98-16.4-58.1-16.02c-30.51,0.54-62.05,1.11-101.31,18.52
	c-16.67,7.39-55.71,24.71-85.06,66.64c-26.78,38.8-38.07,86.21-31.67,132.91c0.27,7.78,0.21,15.69-0.18,23.52
	c-1.01,20.15-3.84,33.48-6.58,46.38c-0.69,3.25-1.34,6.32-1.96,9.47c-0.26,1.34-0.54,2.73-0.82,4.16
	c-5.15,25.9-12.93,65.05,4.92,105.94c3.47,7.95,7.71,15.54,12.66,22.66l0.45,0.65l0.72-0.35c18.12-8.81,36.71-13.47,55.25-13.85
	c9.32-0.19,37.67-0.77,41.58,10.71c1.3,3.81-0.28,8.83-4.57,14.61c-1.34-10.3-3.21-15.06-5.99-15.34
	c-3.74-0.37-7.04,7.03-10.09,14.65c-0.32,0.79-0.59,1.48-0.82,2.03c-4,9.47-11.32,15.38-20.66,19.77
	c-17.61-0.25-35.76,4.78-52.49,14.58c-2.74,1.61-5.41,3.33-8.02,5.16c-12.13,5.02-24.13,11.89-34.97,22.42
	c-1.81,1.76-17.84,17.8-22.88,38.71c-1.7,6.88-2.04,14.03-0.99,21.05c0.15,0.93,0.3,1.81,0.45,2.65
	c-1.02,8.21-0.97,16.35-0.91,24.73c0.19,19.42,2.88,38.74,8.02,57.46c4.3,15.59,9.05,25.72,11.51,27.67
	c0.41,0.38,0.97,0.55,1.52,0.45c1.91-0.44,1.32-3.14-0.42-11.14c-3.25-14.95-10.01-46.06-2.62-82.98
	c3.09-16.14,8.22-31.83,15.26-46.68c5.1-10.85,11.83-20.87,19.95-29.69c2.42-2.57,5-4.98,7.72-7.22c1.28-0.37,2.75-0.78,4.36-1.24
	c4-1.12,8.4-2.58,13.47-4.46c8.1-2.97,15.99-6.49,23.62-10.52c10.81-0.59,24.11,0.99,39.45,7.24l0.08,0.03
	c70.62,28.76,82.26,127.87,84.15,161.61c-14.94-0.13-29.04,1.17-41.57,11.22c-18.14,14.56-25.03,41-27,66.36
	c-4.91,10.89-8.99,22.14-12.22,33.64c-4.15,15.3-7.17,35.19,2.05,43.06c3.54,3.02,7.94,3.45,12.2,3.86c1.29,0.12,2.6,0.25,3.89,0.45
	c2.01,10.7,4.79,21.23,8.32,31.53c3.06,8.28,4.52,8.24,5.22,8.22c0.91-0.03,1.67-0.84,2.4-2.56c2.45-5.74,4.74-23.46-4.08-33.25
	c-2.7-2.95-6.31-4.91-10.26-5.54c-1.51-7.74-2.8-15.82-3.8-23.83c-1.82-14.54-3.41-34.82-1.9-55.09c3.26-7.3,6.57-13.85,9.46-19.03
	c7.76-13.9,11.57-16.65,12.38-16.54c0.58,0.62,0.92,3.71,1.17,8.37c-2.89,5.92-5.13,12.14-6.69,18.55
	c-2.53,10.96-1.52,19.28,2.92,24.06c1.46,1.53,3.2,2.78,5.12,3.66c1.01,15.89,2.22,28.59,2.96,35.6c0.69,6.55,1.38,12.21,2,16.38
	c0.98,6.54,1.4,6.92,1.72,7.2c0.2,0.19,0.47,0.28,0.75,0.26c1.14-0.07,1.15-1.43,1.17-3.89c0.02-1.93-0.04-4.74-0.1-8.29
	c-0.1-5.64-0.25-13.35-0.2-22.35c0.04-8.22,0.24-15.82,0.52-22.8c3.31,0.16,6.62-0.34,9.74-1.48c12.58-4.69,20.75-20.91,24.29-48.21
	c1.87-15.64,2.37-31.41,1.51-47.14c-0.01-0.18-0.02-0.36-0.02-0.53c2.18,0.04,4.4,0.1,6.65,0.15c20.89,0.55,44.58,1.17,69.61-16.84
	c7.56-5.58,14.39-12.09,20.31-19.37c9-10.74,15.54-23.32,19.16-36.86c3.45,5.15,6.76,10.55,9.94,16.2
	c16.18,28.77,25.81,58.59,32.19,78.32c2.42,7.49,4.29,13.2,5.9,17.29c-2.43,9.73-4.62,23.03-0.15,25.08
	c2.07,0.95,4.33-0.93,6.33-2.58c1.18-0.98,2.78-2.31,3.48-2.12c-4.36,20.81-14.5,38.33-23.5,50.6c2.95-7.93,4.67-16.25,5.11-24.7
	c0.29-4.82,0.85-20.61-3.83-21.63c-4.32-0.94-9.11,10.16-17.2,29.88c-3.55,8.64-7.21,17.57-10.64,24.18
	c-4.52,8.72-7.04,10.26-8.35,10c-3.25-0.61-4.79-9.02-6.03-15.77c-1.33-7.25-2.38-12.97-5.45-13.18
	c-5.26-0.34-11.05,17.42-12.15,20.99c-4.23,13.66-6.91,30.95-0.55,34.7c4.02,2.37,11.01-0.27,16.17-2.89
	c8.89-4.53,22.04-14.18,34.87-28.66c-0.97,1.81-1.96,3.58-2.94,5.35c-5.38,9.67-10.46,18.8-11.7,31.47
	c-1.4,14.26,3.17,26.84,7.25,34.88c4.86,9.57,10.62,16.08,13.32,18.12C416.62,893.7,417.25,893.99,417.93,894.08z M442.61,744.42
	c-0.15,3.23-1.01,8.78-3.54,18.27c-4.32,15.47-9.43,30.7-15.33,45.64c-2.71,6.98-4.86,12.11-6.59,16.24
	c-4.02,9.6-5.68,13.57-6.66,21.95c-2.26,19.32,3.03,34.74,5.58,42.15c0.36,1.06,0.73,2.13,0.97,2.93
	c-4.75-3.91-22.18-25.11-19.62-51.17c1.21-12.28,6.2-21.25,11.48-30.75c2.22-3.99,4.47-8.03,6.51-12.41c0.73-0.92,1.47-1.85,2.2-2.8
	C426.6,782.74,437.37,765.37,442.61,744.42L442.61,744.42z M217.08,875.25L217.08,875.25z M205.72,837.7
	c3.27,0.64,6.25,2.33,8.49,4.8c5.86,6.5,6.57,17.44,5.27,25.52c-0.68,4.21-1.74,6.57-2.27,7.12c-0.84-0.71-3.39-5.08-7.17-18.99
	C208.48,850.43,207.02,844.2,205.72,837.7L205.72,837.7z M197.46,761.79c-0.35,6.89-0.37,13.63-0.18,19.96
	c0.6,18.02,2.64,35.96,6.08,53.65c-1.13-0.16-2.25-0.26-3.33-0.37c-4.16-0.4-8.08-0.78-11.18-3.42c-8.48-7.23-5.48-26.38-1.46-41.16
	C190.1,780.68,193.47,771.11,197.46,761.79L197.46,761.79z M413.8,796.29c-14.15,17.58-29.42,29.1-39.31,34.14
	c-6.61,3.36-11.86,4.44-14.39,2.95c-2.2-1.3-3.19-5.55-2.77-11.98c0.61-6.99,2-13.89,4.16-20.56c1.46-4.91,3.36-9.68,5.68-14.24
	c2.19-4.1,3.84-5.5,4.57-5.45c0.28,0.02,1.03,0.37,1.92,3.22c0.76,2.78,1.37,5.6,1.83,8.45c1.48,8.07,3.01,16.41,7.51,17.26
	c5.67,1.07,12.02-13.28,21.05-35.31c3.22-7.84,6.26-15.25,9.01-20.72c3.95-7.84,5.65-8.15,6.08-8.05c1.68,0.36,3.07,8,2.37,19.71
	C420.96,776.3,418.34,786.69,413.8,796.29L413.8,796.29z M230.97,777.84c-0.29,7.02-0.49,14.66-0.53,22.94
	c-0.05,9.02,0.1,16.75,0.2,22.4c0.03,1.33,0.05,2.61,0.07,3.8c-1.39-9.6-3.38-28.3-4.8-50.31
	C227.54,777.25,229.24,777.64,230.97,777.84z M266.47,680.61c0.01,0.22,0.02,0.43,0.03,0.64c0.86,15.62,0.36,31.28-1.5,46.81
	c-1.54,11.87-4.01,21.73-7.34,29.31c-4.02,9.15-9.32,15.01-15.76,17.41c-2.88,1.05-5.95,1.5-9.01,1.34
	c0.91-20.47,2.65-35.52,3.81-45.59c1.48-12.82,1.98-17.14-0.56-17.83c-2.67-0.72-6.64,4.76-9.49,9.48c-0.81,1.34-1.6,2.74-2.37,4.18
	c-0.39-4.81-1-6.47-2.21-6.85c-1.54-0.5-3.56,0.93-6.36,4.48c-3.07,4.09-5.83,8.41-8.26,12.91c-2.27,4.07-4.79,8.96-7.35,14.4
	c0.27-2.56,0.59-5.1,0.96-7.64c3.65-24.34,12.03-41.92,24.89-52.24C238.11,681.67,251.44,680.44,266.47,680.61L266.47,680.61z
	 M235.59,714.47c0.02,0,0.05,0,0.07,0.01c0.05,0.03,0.54,0.46,0.38,3.98c-0.12,2.73-0.59,6.75-1.18,11.84
	c-1.16,10.09-2.9,25.15-3.82,45.64c-1.81-0.22-3.57-0.67-5.27-1.34c-0.28-4.5-0.53-9.13-0.76-13.84c-0.01-0.14,0-0.75,0.02-1.52
	c0.04-2.39,0.12-7.34-0.03-13.44c-0.17-6.88-0.3-12.01-0.49-15.82c1.17-2.38,2.42-4.69,3.73-6.86
	C232.24,716.52,234.88,714.47,235.59,714.47L235.59,714.47z M222.81,733.68c0.13,3.57,0.23,7.72,0.34,12.18
	c0.15,6.06,0.07,10.99,0.03,13.37c-0.02,0.99-0.02,1.44-0.02,1.64c0.21,4.46,0.44,8.76,0.69,12.86c-1.35-0.72-2.58-1.65-3.63-2.76
	c-5.06-5.45-4.14-15.18-2.48-22.38C218.98,743.47,220.68,738.48,222.81,733.68L222.81,733.68z M441.61,738.02
	c-1.43,0-2.95,1.26-4.53,2.57c-1.5,1.24-3.36,2.79-4.37,2.33c-2.26-1.04-1.85-9.88,0.58-20.54c1.86,4.07,3.44,5.71,5.29,5.23
	c1.96-0.51,3.05-3.35,3.43-8.96c0.28-6.67,0.06-13.35-0.67-19.98c-0.15-1.6-0.32-3.27-0.51-4.99c2.84,11.44,3.73,23.28,2.64,35.01
	c-0.31,3.19-0.77,6.32-1.36,9.39C441.95,738.03,441.78,738.02,441.61,738.02L441.61,738.02z M439.07,694.62
	c0.16,1.44,0.3,2.85,0.42,4.21c1.91,20.52,0.04,26.61-1.37,26.97c-0.3,0.08-1.46-0.1-3.79-5.67c-0.1-0.25-0.21-0.5-0.32-0.77
	c0.56-2.19,1.2-4.44,1.92-6.69C437.77,706.83,438.83,700.75,439.07,694.62L439.07,694.62z M436.52,679.41
	c1.45,11.28,0.96,22.32-2.35,32.71c-0.38,1.19-0.82,2.66-1.27,4.32c-1.43-3.92-3.04-8.89-4.94-14.77
	c-6.4-19.8-16.07-49.73-32.34-78.66c-3.49-6.21-7.15-12.12-10.97-17.73c0.53-2.34,0.96-4.7,1.29-7.08c0.18-1.29,0.33-2.56,0.45-3.84
	c1.22,1.68,2.42,3.34,3.61,4.97c8.03,11.06,15.62,21.51,22.37,32.79C420.72,646.06,430.15,661.84,436.52,679.41L436.52,679.41z
	 M96.98,527.32c-1.64,1.49-3.24,3.06-4.81,4.71c-8.25,8.96-15.09,19.13-20.28,30.16c-7.11,14.99-12.29,30.83-15.41,47.13
	c-7.46,37.3-0.65,68.66,2.62,83.74c0.71,2.83,1.24,5.71,1.57,8.61c-1.77-1.81-6.07-10.52-10.2-25.08
	c-5.32-19.01-8.13-38.64-8.35-58.38c-0.04-6.32-0.08-12.52,0.35-18.7c1.29,4.86,2.74,7.1,4.55,7.26c3.03,0.25,4.08-5.03,6-14.63
	c2.45-12.26,6.08-30.49,15.86-47.61c2.38-2.2,4.66-4.08,6.7-5.64c8.04-6.14,16-10.08,20.31-11.26
	C96.06,527.59,96.43,527.48,96.98,527.32z M382.67,605.64c-3.16,13.33-9.59,26-19.19,37.75c-5.82,7.16-12.53,13.56-19.96,19.04
	c-10.52,7.7-22.69,12.86-35.54,15.07c-11.44,1.99-22.37,1.7-32.94,1.43c-2.28-0.06-4.55-0.12-6.8-0.16
	c-1.39-25.38-6.02-51.45-13.11-73.68c-6.49-20.34-15.05-37.87-25.46-52.1c-12.82-17.53-28.54-30.17-46.74-37.57l-0.08-0.03
	c-13.93-5.67-26.23-7.56-36.56-7.49c7.89-4.54,15.48-9.56,22.74-15.04c0.57-0.42,1.13-0.83,1.69-1.23
	c10.44,1.52,19.11,4.89,28.17,8.4c19.86,7.71,30.2,16.22,43.28,27.01c9.54,8.08,19.53,15.62,29.9,22.6
	c8.55,5.69,22.87,15.22,36.33,21.73c16.1,7.8,26.76,9.35,32.59,4.74c2.98-2.35,4.36-6.12,4.62-10.79
	c6.69,5.28,12.97,11.08,18.77,17.33C371.02,589.85,377.14,597.53,382.67,605.64z M392.39,579.18l0.02,0.04
	c1.34,2.16,2.69,4.38,3.99,6.6c14.35,24.46,32.27,54.99,38.57,84.59c-6.13-14.38-13.96-27.47-21.01-39.26
	c-6.78-11.35-14.4-21.83-22.46-32.92c-1.61-2.21-3.23-4.46-4.89-6.75c1.41-23.77-7.39-44.48-15.43-58.13
	c-3.56-6.04-7.58-11.8-12.01-17.24c7.22,1.89,12.54,5.11,15.9,9.63c3.87,5.22,4.84,11.69,5.97,19.18
	C382.44,554.28,384.2,565.92,392.39,579.18L392.39,579.18z M358.82,509.82c0.82,0,1.57,0.02,2.22,0.06
	c9.56,0.64,19.22,8.14,28.71,22.26c8.34,12.41,16.38,29.66,23.92,51.26c8.1,23.72,14.57,47.96,19.35,72.57
	c-8.12-25.28-22.84-50.35-35-71.08c-1.31-2.23-2.66-4.47-4.02-6.64l0,0c-8.01-12.95-9.66-23.92-11.11-33.59
	c-1.16-7.74-2.17-14.42-6.31-20.01c-3.98-5.37-10.48-9.02-19.37-10.9c-1.12-1.31-2.24-2.58-3.36-3.79
	C355.66,509.87,357.36,509.82,358.82,509.82L358.82,509.82z M64.43,548.94c-7.82,15.73-11.01,31.72-13.23,42.84
	c-0.86,4.34-1.55,7.77-2.29,10.14c-0.92,2.92-1.59,3.02-1.72,3.01c-0.51-0.04-2.21-1.04-4.12-11.46c1.09-9.27,3.9-18.25,8.29-26.49
	C54.9,560.41,59.3,554.35,64.43,548.94z M384.73,592.03c-0.13,1.95-0.33,3.91-0.61,5.9c-0.25,1.76-0.55,3.5-0.9,5.24
	c-5.31-7.66-11.16-14.94-17.49-21.79c-6.18-6.67-12.9-12.82-20.09-18.39c-0.21-12.24-6.75-29.55-12.36-44.4
	c-1.22-3.22-2.4-6.36-3.46-9.28c2.69,0.77,5.49,1.14,8.29,1.1c2.29,6.81,5.12,13.44,8.45,19.81
	C359.63,556.3,372.76,575.42,384.73,592.03L384.73,592.03z M356.15,515.42c5.01,5.9,9.5,12.21,13.44,18.88
	c7.64,12.97,15.98,32.42,15.29,54.76c-11.55-16.11-24.14-34.7-36.66-59.66c-3.19-6.1-5.91-12.44-8.15-18.95
	c0.56,0.01,1.14,0,1.73-0.01c1.5,1.08,3.2,2.31,5.11,3.71l0.22,0.16l0.27,0.02C350.34,514.49,353.26,514.86,356.15,515.42
	L356.15,515.42z M67.41,543.37c-7.11,6.55-13.08,14.24-17.69,22.74c-3.57,6.65-6.12,13.8-7.55,21.21c-0.46-5.73,0-11.49,1.36-17.08
	c4.91-20.41,20.6-36.09,22.37-37.81c7.96-7.66,17.1-13.99,27.08-18.75c-9.56,7.73-17.76,17.01-24.24,27.46
	C68.28,541.87,67.84,542.62,67.41,543.37z M343.77,563.9c-0.04,4.77-1.18,8.56-3.95,10.75c-12.25,9.69-50.43-15.71-66.74-26.56
	c-10.32-6.94-20.25-14.45-29.74-22.48c-13.21-10.89-23.65-19.49-43.79-27.31c-8.62-3.35-16.9-6.56-26.7-8.22
	c10.19-7.31,18.01-11.8,31.08-10.11c7.15,0.92,13.54,3.04,19.71,5.09c10.73,3.56,19.99,6.63,28.55,1.33
	c11.01-6.82,13.42-23.09,14.87-32.81c0.25-2.19,0.66-4.37,1.23-6.5c0.26,1.71,0.42,3.43,0.47,5.16c0.39,6.88,1.04,18.39,6.52,30.19
	c4.82,10.38,11.63,17.21,16.61,22.2c4.06,4.07,6.99,7.01,6.02,9.19c-1.34,3.02-8.54,2.79-14.32,2.61
	c-5.85-0.18-10.46-0.33-11.33,2.23c-1.61,4.78,13.7,13.45,42.51,27.79c2.96,1.47,5.52,2.75,7.38,3.71
	C329.74,554.1,336.97,558.69,343.77,563.9L343.77,563.9z M327.34,507.89c1.16,3.29,2.57,7.07,4.19,11.36
	c5.1,13.49,11.46,30.32,12.17,42.28c-6.53-4.9-13.46-9.25-20.71-13.02c-1.88-0.97-4.44-2.25-7.41-3.72
	c-7.95-3.96-18.84-9.38-27.55-14.42c-14.15-8.2-14.17-10.69-14.03-11.11c0.42-1.26,5.67-1.09,9.51-0.97
	c6.67,0.21,14.22,0.45,16.07-3.72c1.49-3.34-1.82-6.66-6.4-11.26c-4.88-4.89-11.55-11.59-16.24-21.67
	c-5.33-11.47-5.97-22.76-6.35-29.51c-0.27-4.82-0.41-7.24-2.17-7.36c-1.93-0.13-2.36,2.77-3.22,8.53
	c-1.4,9.4-3.73,25.14-14.01,31.51c-7.81,4.84-16.7,1.9-26.98-1.52c-5.96-1.98-12.73-4.22-20.06-5.17
	c-14.43-1.87-22.62,3.34-33.94,11.55c-2.01-0.27-4.08-0.48-6.24-0.61c8.23-4.39,14.7-10.27,18.47-19.19
	c0.24-0.56,0.52-1.26,0.83-2.06c1.51-3.76,5.51-13.76,8.18-13.49c0.66,0.07,2.94,1.41,4.6,15.94l0.25,2.19l1.39-1.71
	c5.82-7.15,7.92-13.25,6.25-18.15c-0.97-2.85-3.22-5.21-6.74-7.06c-0.03-0.21-0.08-0.42-0.14-0.62c-2.14-8.27-3.77-16.65-4.91-25.11
	c-0.26-1.85-0.47-3.62-0.66-5.28c0.77,3.17,1.73,6.29,2.85,9.35c2.58,6.94,6.08,13.51,10.41,19.52l0.21,0.29l0.35,0.08
	c9.63,2.15,15.87,1.45,18.53-2.06c0.83-1.15,1.34-2.49,1.47-3.9c0.89,0.66,1.82,1.27,2.77,1.83c1.48,0.86,2.98,1.54,3.84,0.68
	c0.92-0.91,0.16-2.18-1.35-4.69c-0.8-1.33-1.79-2.98-2.75-4.93c-2.03-3.98-3.41-8.26-4.1-12.68c0.38,0.53,0.83,1.21,1.28,1.89
	c2.75,4.34,5.96,8.37,9.59,12.02c3.88,3.8,8.27,7.04,13.04,9.63l3.55,1.93l-2.35-3.29c-5.37-7.51-10.25-15.36-14.62-23.49
	c-9.99-18.66-17.23-38.67-21.49-59.41c6.09,11.91,20.74,41.71,30.54,64.5c1.46,3.41,9.16,20.35,16.83,19.42
	c1.16-0.23,2.27-0.66,3.27-1.28c0.81-0.4,1.91-0.94,3.42-1.65c2.98-1.4,6-2.75,8.99-3.99l1.03-0.43l-0.61-0.93
	c-4.44-6.76-8.75-13.79-12.8-20.92c-9.22-16.23-11.22-21.53-11.62-23.23c1.95,1.73,3.78,3.58,5.49,5.55
	c5.07,5.52,6.97,7.38,8.38,6.43s0.33-3.08-2.85-9.46c-4.1-8.23-10.98-22.01-15.21-39.56c-1.17-4.85-2.08-9.75-2.73-14.69
	c2.24,1.83,4.54,3.62,6.85,5.36c13.36,10.04,17.19,12.55,18.77,11.09c1.39-1.29-0.31-3.61-5.89-10.73
	c-4.5-5.75-10.67-13.62-14.93-21.69c-7.51-14.23-10.36-31.64-8.45-51.73c1.61-16.92,6.23-32.47,9.3-42.76l0.11-0.37
	c5.01-7.98,9.56-16.24,13.62-24.75c1.65-3.33,3.5-6.84,5.52-10.49c1.33,2.79,1.77,6.4,2.23,10.13c0.24,2.02,0.5,4.11,0.9,6.13
	c2.36,11.8,10.15,23.43,19.85,29.62c14.04,8.96,29.7,5.44,32.69,4.64c7.35-1.99,14.03-5.94,19.32-11.41
	c-0.74,1.41-1.53,2.95-2.36,4.63c-1.44,2.9-2.43,6-2.93,9.2l-0.03,0.17c-0.72,4.6-1.53,9.8,1.95,12.67
	c3.68,3.03,9.59,2.19,12.42-0.59c0.89-0.88,1.47-2.03,1.66-3.27c0.08-0.32,0.15-0.64,0.25-0.97c0.67,0.98,1.65,1.71,2.78,2.07
	c1.64,0.35,3.36,0.02,4.76-0.91c0.87-0.57,1.56-1.37,2-2.32c0.27-0.57,0.64-1.08,1.08-1.53c1.35-1.15,3.05-1.8,4.82-1.86
	c0.63-0.07,1.37-0.15,1.69-0.63c0.16,0.78,0.27,1.57,0.37,2.33c0.31,2.33,0.6,4.54,2.57,5.18c0.56,0.18,1.16,0.2,1.73,0.05
	l-0.41,0.23c-3.26,1.88-5.05,2.92-6.79,5.36c-3.47,4.88-2.83,10.59-2.58,12.75l0.02,0.14c0.13,1.13,0.34,2.25,0.64,3.35l-0.13,0.01
	c-4.73,0.46-10.93,6.12-11.19,6.36c-0.78,0.72-5.36,3.35-13.68,8.13c-5.23,3.01-9.11,4.99-11.67,6.3c-1.55,0.79-2.69,1.38-3.49,1.86
	c-0.24,0.13-0.46,0.28-0.67,0.45c-0.73,0.55-0.99,1.01-0.88,1.6c-0.01,1.42,1.66,2.46,3.15,3.21c0.08,0.05,0.15,0.11,0.24,0.17
	c2.47,1.65,14.23,6.37,26.99,9.13c11.7,2.54,27.47,4.09,36.1-2.88c1.09-0.88,4-3.23,3.81-6.31c-0.28-1.93-1.32-3.67-2.9-4.83
	c1.08,0.19,2.19,0.05,3.19-0.41c3.71-1.85,4.4-8.67,2.54-13.54c-1.42-3.45-4.11-6.21-7.52-7.73c-1.69-0.79-3.52-1.24-5.38-1.33
	c-0.35-0.24-0.74-0.5-1.15-0.77c-1.21-0.83-2.37-1.72-3.48-2.67c-1.35-0.99-2.54-2.17-3.54-3.52c-2.09-3.32-2.73-8.69-0.35-11.41
	c0.63-0.71,1.51-1.14,2.45-1.22c1.61-0.3,3.15-0.91,4.53-1.8c2.8-1.8,5.02-4.37,6.42-7.39c1.07-0.73,1.99-1.68,2.69-2.77
	c1.44-2.58,1.14-5.86-0.2-9.49c2.29,1.09,10.29,4.64,16.18,3.84c0.23-0.03,0.46-0.07,0.69-0.11c0.1,0.7,0.18,1.4,0.24,2.09
	c0.47,5.12-0.18,9.3-1.5,17.61c-1.93,12.25-7.68,39.14-10.95,53.45c-0.73,3.18-1.53,9-2.37,15.17c-0.99,7.25-2.12,15.47-3.26,20.14
	c-1.47,6.02-3.3,13.51-9.57,18.41c-3.43,2.68-7.15,3.91-15.28,5.05c-4.97,0.7-10.01,1.4-15.38,1.79
	c-2.92-1.95-10.15-4.65-29.48-7.91l-0.04-0.01c-8.64-1.46-14.88-2.51-19.17-3.1c-5.83-0.8-7.33-0.69-7.62,0.55
	c-0.08,0.33-0.01,0.68,0.18,0.96c1.4,2.2,14.81,6.94,26.58,9.39c9.52,2.02,19.27,2.7,28.97,2.02c0.45,0.32,0.8,0.75,1.04,1.25
	c2.14,4.39-1.63,9.45-7.33,17.12c-2.58,3.47-5.46,7.33-8.32,11.86c-0.43-5.36,0.05-10.76,1.41-15.96c0.23-0.92,0.29-1.17,0.06-1.54
	l-0.21-0.33l-0.83-0.17l-0.35,0.29c-0.63,0.53-3.15,6.94-5.22,15.4c-1.49,6.15-2.57,12.4-3.22,18.7
	c-10.02,24.79-11.6,53.83-6.57,70.2c0.31,1.02,0.65,1.97,1.01,2.87c-0.03,2.38,0.83,5.86,2.37,10.52c-0.08,0.49-0.05,1,0.1,1.48
	C326.59,506.94,326.91,507.47,327.34,507.89L327.34,507.89z M100.36,524.41c-1.4,0.4-2.56,0.74-3.42,0.99
	c-0.79,0.23-1.32,0.39-1.53,0.44c-4.16,1.14-12.14,4.86-20.95,11.58c-0.75,0.57-1.53,1.19-2.34,1.84
	c7.58-11.31,17.19-21.13,28.34-28.95c10.76-4.44,21.62-7.43,31.85-10.23c10.31-2.83,19.98-5.49,28.21-9.29
	c2.62,0.05,5.11,0.22,7.51,0.49l-0.1,0.08c-8.16,6.19-16.77,11.76-25.76,16.68C126.84,508.86,112.18,514.6,100.36,524.41
	L100.36,524.41z M137.81,510.29c-6.31,3.14-12.78,5.93-19.39,8.36c-4.97,1.84-9.29,3.28-13.21,4.38
	C114.81,516.05,126.03,511.66,137.81,510.29L137.81,510.29z M351.36,510.07c0.95,1,1.9,2.04,2.85,3.12
	c-2.03-0.32-4.17-0.56-6.42-0.72c-1.04-0.76-2.01-1.47-2.92-2.12c1.89-0.06,3.88-0.15,5.97-0.26L351.36,510.07z M349.65,508.3
	c-2.27,0.11-4.78,0.22-7.27,0.27c-1.4-1-2.64-1.88-3.71-2.63c-0.1-0.34-0.2-0.69-0.29-1.04c-0.68-2.45-1.34-5.14-1.95-8.08
	C341.17,500.24,345.6,504.08,349.65,508.3z M337.07,507.08c0.14,0.49,0.29,0.97,0.44,1.45c-3.86-0.14-7.13-0.6-8.58-1.72
	c-0.24-0.69-0.47-1.36-0.69-2.02c0.36-0.88,0.82-1.72,1.37-2.5c0.33,0.22,0.67,0.41,1.03,0.57
	C332.86,504.15,335.01,505.56,337.07,507.08L337.07,507.08z M155.7,490.83c-7.17,2.87-15.3,5.1-23.88,7.46
	c-7.72,2.12-15.8,4.34-23.94,7.21c0.22-0.13,0.44-0.26,0.66-0.39C123.6,496.3,139.8,491.4,155.7,490.83z M334.24,495.38
	c0.63,3.25,1.33,6.22,2.05,8.92c-1.56-1.13-3.19-2.16-4.87-3.1c-0.29-0.13-0.56-0.29-0.83-0.46c1.14-1.86,2.04-3.86,2.67-5.95
	C333.58,494.97,333.91,495.17,334.24,495.38L334.24,495.38z M328.16,501.13l-0.07,0.1c-0.23,0.36-0.45,0.71-0.66,1.04
	c-0.19-0.62-0.36-1.21-0.52-1.78c-0.12-0.42-0.22-0.81-0.32-1.18C327.06,499.96,327.58,500.57,328.16,501.13L328.16,501.13z
	 M331.6,493.87c-0.56,1.99-1.38,3.89-2.45,5.65c-1.44-1.6-2.57-3.46-3.34-5.47c0.06-1.03,0.36-1.39,0.58-1.51
	C326.94,492.23,328.56,492.32,331.6,493.87L331.6,493.87z M333.77,492.81l0.02,0.13l-0.05-0.02L333.77,492.81z M328.96,428.04
	c-0.21,3.71-0.29,7.64-0.17,11.73c0.61,21.85,0.95,33.88,2.41,40.09l0.14,0.58c1.09,3.76,1.33,7.71,0.7,11.57
	c-2.56-1.26-5.03-1.95-6.56-1.08c-0.23,0.13-0.44,0.29-0.62,0.49c-0.05-0.15-0.1-0.31-0.15-0.47
	C320.18,476.2,321.13,450.94,328.96,428.04z M339.12,417.18c-1.69,5.5-3.09,11.08-4.21,16.72c-2.16,10.81-3.27,21.8-3.32,32.83
	c-0.38-6.61-0.62-15.43-0.95-27.02c-0.16-6.01,0.06-12.03,0.68-18.01c1.6-3.93,3.44-7.76,5.51-11.47c0.36,1.59,0.82,3.16,1.38,4.69
	C338.49,415.68,338.8,416.44,339.12,417.18z M166.32,440.57c-2.29,0-4.26,0.04-5.73,0.07c-18.56,0.38-37.16,4.99-55.3,13.69
	c-4.68-6.84-8.71-14.1-12.03-21.7c-17.61-40.36-9.9-79.16-4.79-104.83c0.28-1.43,0.56-2.82,0.82-4.16c0.61-3.14,1.26-6.2,1.95-9.44
	c2.62-12.36,5.59-26.37,6.62-46.67c0.4-7.9,0.46-15.88,0.18-23.73l-0.01-0.09c-6.36-46.26,4.83-93.21,31.34-131.64
	c29.05-41.5,67.76-58.67,84.29-66c38.92-17.26,70.27-17.82,100.59-18.36c20.72-0.37,41.94,1.25,56.78,15.5
	c2.31,2.22,4.39,4.65,6.23,7.28c-2.57,0.16-5.12,0.53-7.62,1.11c-2.69,0.54-6.04,1.22-6.52,0.37c-0.2-0.36,0.46-1.28,0.99-2.03
	c0.84-1.18,1.79-2.52,1.58-4.04c-0.66-4.63-12.02-6.73-21.43-7.68c-12.88-1.3-29.26-1.12-44.95,0.5
	c-13.1,1.18-26.08,3.41-38.82,6.66c-10.62,2.88-21.06,6.43-31.24,10.61c-19.7,8.17-37.99,19.41-54.16,33.32
	c-14.26,12.46-26.51,27.05-36.31,43.26c-16.96,27.96-27.68,61.17-32.74,101.53l-0.76,6.05c-11.21,89.33-14.23,113.35-11.22,150.87
	c1.19,14.79,3.05,28.13,4.4,36.72c0.68,4.32,1.4,8.47,2.02,11.7c0.9,4.69,1.05,4.81,1.35,5.05l0.31,0.25l0.4-0.05
	c0.91-0.11,0.88-0.96,0.84-2.13c-0.03-0.71-0.08-1.73-0.17-3.13c-0.12-1.89-0.3-4.25-0.49-6.83c1.86,8.52,4.7,14.99,9.43,15.92
	c4.22,0.84,8.12-3.31,8.86-4.15c1.03-1.19,1.87-2.53,2.49-3.97c0.14,0.05,0.29,0.09,0.43,0.13c3.93,1.01,8.58-1.01,13.81-6.01
	l0.38-0.37l-0.12-0.52c-5.78-24.4-9.82-49.18-12.08-74.16c-1.21-13.37-2.13-29.42-2.46-42.95c-0.31-12.67-0.02-19.08,0.34-21.81
	c0.77,2.64,2.2,9.52,4.66,27.25c3.16,22.8,7.47,59.32,12.8,108.54l0.07,0.66l0.64,0.15c5.62,1.3,9.91,0.82,12.77-1.42
	c0.35-0.28,0.69-0.59,1-0.92c0.92,0.74,1.98,1.29,3.12,1.63c1.13,0.29,2.29,0.43,3.46,0.41c1.64,0.03,3.28,0.17,4.9,0.44
	c7.37,1.23,14.34,4.76,20.72,10.5l0.61,0.55c-1.39-0.31-2.86-0.58-4.43-0.82C178.21,440.89,172.27,440.52,166.32,440.57
	L166.32,440.57z M121.79,439.65c-0.55,1.27-1.29,2.45-2.19,3.5c-0.38,0.43-3.8,4.21-7.1,3.55c-7.49-1.48-9.71-23.91-10.55-32.36
	c-0.39-3.91-0.42-4.23-0.86-4.59l-0.3-0.24l-0.4,0.03c-0.99,0.1-0.96,1.08-0.92,2.7c0.03,1.04,0.1,2.52,0.23,4.52
	c0.22,3.58,0.57,8.18,0.91,12.66c-1.59-9.83-3.51-23.82-4.69-38.56c-3-37.33,0.01-61.3,11.21-150.48l0.76-6.05
	c5.03-40.1,15.65-73.07,32.48-100.79c9.69-16.04,21.82-30.49,35.94-42.82c16.03-13.77,34.14-24.92,53.67-33.01
	c10.1-4.15,20.45-7.66,30.98-10.52c12.65-3.22,25.54-5.43,38.55-6.61c15.57-1.6,31.81-1.79,44.57-0.5
	c14.17,1.43,19.51,4.18,19.78,6.1c0.11,0.78-0.58,1.75-1.25,2.7c-0.88,1.23-1.87,2.63-1.09,4.01c1.14,2.03,4.39,1.37,8.5,0.54
	c2.93-0.73,5.94-1.08,8.95-1.05c7.53,0.5,15.01,7.51,22.22,20.81c6.03,11.12,10.23,23.76,11.81,28.52
	c5.74,17.4,9.19,35.48,10.27,53.77c-1.35-7.51-3.93-14.74-7.63-21.41c-0.34-21.47-10.1-40.35-13.63-43.17
	c-0.37-0.34-0.87-0.5-1.37-0.42c-0.4,0.11-0.73,0.4-0.89,0.79c-1.2,2.55,0.2,17.39,6.9,31.29c1.53,3.16,3.3,6.2,5.28,9.1
	c0.22,0.32,0.41,0.62,0.6,0.9c0.43,0.66,0.85,1.34,1.26,2.02c0.01,0.66,0,1.32-0.01,1.98c-0.07,3.82-0.45,7.52-0.82,11.09
	c-0.47,4.6-0.89,8.68-0.53,11.96c-5.08-2.07-10.03-3.71-13.58-4.8c-1.59-2.22-2.99-4.57-4.19-7.02c-1.35-2.82-2.47-5.74-3.36-8.74
	c-0.94-3.01-1.57-5-3.45-5.11c-1.9-0.12-2.91,1.83-4.43,4.76c-1.1,2.21-2.34,4.35-3.71,6.4c-4.7,6.91-10.93,11.85-13,12.54
	c0.93-1.75,1.98-3.43,3.14-5.04c5.36-7.96,15.35-22.79,15.86-40.95c0.54-19.06-9.05-36.33-15.71-42c-2.26-1.93-4.3-2.74-6.05-2.4
	c-4.02,0.76-6.71,7.56-8.22,20.8c-0.72,6.72-1.1,13.48-1.14,20.24l-0.09,0.34c-0.49,1.96-0.95,3.8-1.39,5.54
	c-3.68,14.74-5.52,22.14-11.29,30.95c-2.2,3.36-4.71,6.52-7.47,9.43c3.67-8.1,6.73-16.46,9.14-25.02
	c2.31-8.22,4.11-16.57,5.39-25.01c1.79-12.55,0.27-14.76-1.25-15.28c-3.26-1.12-8.6,7.5-10.36,10.33
	c-4.52,7.42-8.36,15.24-11.47,23.36c-1.33,3.49-2.38,6.75-3.4,9.9c-2.39,7.39-4.65,14.38-10.08,23.57c-1,0.15-2.03,0.32-3.07,0.5
	c2.65-10.17,5.75-20.33,9.25-30.32c2.01-5.73,3.86-10.59,5.35-14.49c1.27-3.34,2.28-5.98,2.87-7.84c0.64-2.01,1.05-3.6-0.05-4.18
	c-0.95-0.51-2.09,0-5.36,4.15c-2.02,2.57-4.7,6.35-7.96,11.23c-5.48,8.2-12.54,19.47-18.91,30.15c-2.72,4.57-5.46,9.11-8.11,13.5
	c-0.91,1.5-1.81,3-2.71,4.49c-0.45,0.16-0.89,0.31-1.32,0.47c-4.6,1.85-9.52,2.75-14.47,2.66c4.72-7.69,9.86-15.13,15.39-22.26
	c1.05-1.31,2.02-2.48,2.88-3.52c0.82-0.99,1.47-1.77,1.92-2.35c0.63-0.81,1.23-1.57,0.52-2.22c-0.22-0.2-0.52-0.29-0.81-0.24
	c-1.23,0.18-8.76,6.34-16.26,13.71s-18.06,18.93-25.69,32.07c-14.6,25.14-16.59,52.74-15.75,73.04c-0.83,2.97-1.56,5.86-2.18,8.67
	c-1.12-8.36-1.44-16.81-0.96-25.24c1.92-33.83,16.51-59.93,22-69.75c2.11-3.78,2.51-4.52,2.31-5.21c-0.07-0.26-0.25-0.49-0.49-0.62
	c-0.31-0.16-0.67-0.17-0.99-0.03c-1.66,0.68-6.96,6.95-12.22,15.2c-7.4,11.71-13.19,24.37-17.21,37.64
	c-6.05,20.55-8,42.08-5.75,63.39c1.72,16.58,5.69,29.24,7.89,32c0.31,0.46,0.83,0.75,1.38,0.77c1.48-0.1,1.51-1.9,1.59-7.84
	c0.01-10.1,0.8-20.19,2.38-30.17c1.45,6.28,3.13,10.42,4.25,11.51c0.29,0.32,0.71,0.49,1.15,0.47c0.32-0.03,0.62-0.19,0.82-0.45
	c0.7-0.86,0.51-2.77-0.27-9.24c-0.61-5.15-1.48-12.36-1.84-20.88c1.07-3.8,2.32-7.72,3.77-11.73c1.47-4.06,3.1-8.05,4.79-11.77
	c0.06,0.56,0.24,1.1,0.53,1.58c0.38,0.63,1.08,0.99,1.82,0.94c0.83-0.05,2.13-0.53,4.54-3.45c-2.95,10.12-6.59,23.76-7.99,38.46
	c-1.94,20.46,0.96,38.21,8.65,52.77c4.34,8.21,10.56,16.16,15.11,21.97c2.45,3.12,5.18,6.6,5.81,8.04
	c-2.43-0.75-10.27-6.64-16.11-11.03c-2.91-2.19-5.8-4.47-8.58-6.79l-1.78-1.48l0.27,2.3c0.67,5.8,1.69,11.54,3.06,17.22
	c4.28,17.76,11.21,31.65,15.35,39.96c1.33,2.67,2.61,5.23,3.07,6.57c-1.97-1.76-3.83-3.64-5.57-5.64c-5.06-5.51-6.81-7.21-8.18-6.29
	c-1.01,0.68-1.41,2.1,3.9,12.5c2.84,5.56,6.17,11.43,7.43,13.64c3.88,6.83,8,13.58,12.24,20.09c-2.67,1.13-5.37,2.34-8.03,3.6
	c-1.53,0.72-2.64,1.27-3.45,1.67c-0.83,0.51-1.73,0.88-2.68,1.1c-5.29,0.65-11.85-11.21-14.9-18.32
	c-7.12-16.56-16.41-35.91-21.32-45.97c-3.08-6.32-6.12-12.44-8.55-17.23c-1.06-2.09-1.96-3.83-2.59-5.02
	c-1.11-2.1-1.32-2.48-2.1-2.24l-0.79,0.24l0.14,0.84c4.09,23.03,11.79,45.27,22.82,65.89c3.73,6.94,7.83,13.67,12.28,20.16
	c-3.22-2.07-6.22-4.46-8.96-7.14c-3.53-3.55-6.67-7.48-9.34-11.72c-1.82-2.74-2.65-3.99-3.84-3.44c-0.34,0.17-0.6,0.47-0.71,0.83
	c-0.73,2.08,1.25,9.35,4.16,15.25c0.99,2.02,2.01,3.71,2.82,5.07c0.43,0.72,0.9,1.49,1.19,2.06c-1.69-0.85-3.28-1.88-4.74-3.07
	l-0.05-0.04c-0.41-8.61-7.78-20.76-11.34-25.32c-2.36-3.01-3.37-3.4-4.17-3.05c-0.5,0.26-0.82,0.77-0.83,1.33
	c-0.46,3.52,4.11,19.17,14.5,27.93c0.06,1.48-0.35,2.94-1.17,4.17c-2.12,2.81-7.76,3.3-16.3,1.45c-4.14-5.8-7.49-12.12-9.97-18.79
	c-2.76-7.7-4.52-15.73-5.21-23.88c-0.07-0.67-0.12-1.19-0.17-1.56c-0.05-0.39-0.2-1.42-1.15-1.32l-0.39,0.04l-0.27,0.32
	c-0.2,0.26-0.54,0.69-0.17,7.27c0.27,4.78,0.84,10.44,1.59,15.95c0.57,4.18,1.25,8.34,2.02,12.36c-2.77-7.99-6.45-19.5-10.24-33.93
	c-6.76-25.75-15.1-65.97-16.4-111.35c-1.02-35.36,2.34-68.73,3.96-84.77c1.02-10.09,1.05-10.83,0.58-11.41
	c-0.16-0.2-0.4-0.33-0.66-0.36c-1.06-0.1-1.33,1.12-1.67,2.65c-0.26,1.19-0.58,2.89-0.96,5.2c-0.7,4.27-1.53,10.03-2.33,15.6
	c-0.68,4.75-1.45,10.12-2.12,14.27c0.31-8.89,1.54-25.24,4.2-43.72c2.05-14.23,4.21-24.52,5.5-30.68c0.43-2.04,0.77-3.65,0.95-4.73
	c0.22-1.26,0.43-2.46-0.59-2.72c-0.29-0.07-0.59-0.01-0.83,0.16c-1.27,0.88-4.19,9.87-5.84,15.69c-3.22,11.45-5.56,23.13-6.98,34.94
	c-1.18,9.95-1.65,19.97-1.41,29.98c-1.73,0.71-3.34,1.66-4.8,2.82c-3.52,2.91-6,6.89-7.08,11.32c-2.01,7.42,0.35,13.76,2.07,18.39
	c2.83,7.59,7.87,14.78,10.16,15.68c0.37,0.17,0.8,0.17,1.17-0.01c1.56-0.79,1.01-3.33-4.02-22.88l-0.07-0.27
	c-1.1-4.27-2.14-8.31-0.12-10.74c0.95-1.14,2.67-2.17,3.73-1.9c0.99,0.26,2.26,2.02,2.72,8.98c0.37,5.62,0.17,13.23-0.06,22.05
	c-0.15,5.97-0.33,12.74-0.33,19.52c0,0.19,0.04,19.49,3.31,51.27c3.57,33.05,11.05,65.57,22.27,96.86c-5.49-4.48-12.03-7.48-19-8.71
	c-1.7-0.28-3.43-0.44-5.15-0.46c-1.01,0.02-2.02-0.09-3-0.33c-0.91-0.27-1.76-0.72-2.5-1.32c2.3-3.62,2.86-9.34,1.61-16.78
	c-1.54-9.17-5.7-20.36-12.03-32.34l-1.82-3.45l0.08,3.9c0.5,26.32,3.67,42.44,9.66,48.88c-0.24,0.26-0.5,0.5-0.78,0.72
	c-2.28,1.8-5.83,2.21-10.55,1.22c-5.54-51.14-9.97-88.47-13.16-110.96c-1.35-9.51-2.5-16.55-3.43-20.91
	c-1.16-5.48-1.83-6.36-2.9-6.28c-0.32,0.03-0.62,0.19-0.82,0.44c-0.32,0.38-0.91,1.08-1.15,7.96c-0.14,4.08-0.14,9.7,0.02,16.26
	c0.32,13.65,1.25,29.91,2.48,43.48c2.25,24.89,6.26,49.58,12,73.9c-4.57,4.26-8.49,6.01-11.67,5.18c-0.08-0.02-0.16-0.04-0.24-0.07
	c4.35-13.4-3.82-35.49-8.92-43.93c-2.27-3.77-3.41-4.07-4.22-3.88c-0.91,0.22-1.95,1.28-2.01,7.65
	C108.9,410.88,112.59,434.26,121.79,439.65L121.79,439.65z M166.98,210.9c-1.7,17.83-3.97,46.34-3.11,76.3
	c1.28,38.05,6.88,75.83,16.68,112.62c3.92,14.83,7.74,26.54,10.25,33.75c1.46,4.18,2.62,7.29,3.35,9.16c0.27,0.7,0.48,1.25,0.66,1.7
	c-1.54-0.61-3.11-1.12-4.71-1.53l-0.7-1.93c-12.14-33.56-19.99-67.09-23.34-99.65c-3.26-31.65-3.3-50.89-3.3-51.08
	c0-6.76,0.17-13.22,0.33-19.48c0.55-20.77,0.62-31.67-4.06-32.87c-2.13-0.55-4.53,1.2-5.62,2.51c-2.63,3.16-1.42,7.85-0.26,12.39
	l0.07,0.27c2.61,10.15,4.58,17.81,4.74,20.32c-1.77-1.52-5.89-7.17-8.51-14.22c-1.73-4.64-3.88-10.42-2.02-17.26
	c0.98-4.06,3.25-7.69,6.46-10.36c1.48-1.18,3.14-2.12,4.91-2.78l0.62-0.23l-0.02-0.66c-0.28-10.14,0.18-20.29,1.38-30.36
	c1.71-14.37,4.82-28.55,9.29-42.32c-1.32,6.29-3.3,16.07-5.18,29.17c-2.27,15.73-3.33,28.83-3.76,35.24
	c-0.3,4.49-0.49,8.43-0.53,11.4c-0.07,4.64,0.22,5.01,0.45,5.31c0.17,0.22,0.42,0.36,0.69,0.39c1.04,0.11,1.33-1.17,1.63-2.53
	c0.24-1.12,0.54-2.72,0.89-4.91c0.66-4.05,1.46-9.57,2.22-14.92C166.65,213.21,166.82,212.06,166.98,210.9L166.98,210.9z
	 M111.48,392.81c1.69,1.28,6.71,10.17,9.88,22.21c1.55,5.9,3.37,15.59,1.09,22.86c-3.13-1.99-5.88-6.79-8.02-14.08
	c-1.84-6.54-2.99-13.27-3.41-20.05C110.59,397.1,111.09,393.75,111.48,392.81L111.48,392.81z M210.88,409.36
	c2.43,2.31,9.18,12.3,11.73,21.13c0.31,1.06,0.56,2.14,0.74,3.23c-4.07-4.09-7.32-8.93-9.55-14.25
	C212.3,416.27,211.32,412.86,210.88,409.36L210.88,409.36z M363.16,388.66c-0.11,0-0.21,0.02-0.31,0.05
	c-0.97,0.27-0.83,1.47-0.7,2.64c0.12,1.06,0.36,2.55,0.7,4.31c0.76,3.95,1.92,8.89,3.2,13.54c2.04,7.42,4.14,13.41,5.64,17.62
	c-1.17-2.07-2.5-4.48-3.7-6.65c-1.98-3.6-4.03-7.31-5.68-10.1c-0.9-1.52-1.6-2.62-2.14-3.38c-0.56-0.78-1.33-1.86-2.28-1.42
	c-1.09,0.5-0.69,1.79,0.48,5.6c0.71,2.3,2.35,7.63,1.76,8.61c-0.75-0.04-2.99-2.14-4.35-3.41c-3.04-2.85-5.92-5.55-8.1-4.44
	c-2.22,1.13-1.94,5.26-1.35,10.54c0.11,1.02,0.24,2.21,0.27,2.96c-1.19-0.86-3.53-3.78-5.49-8.05
	c4.82-15.41,11.89-30.02,20.98-43.36c2.23-0.28,4.44-0.59,6.62-0.9c8.51-1.19,12.44-2.51,16.17-5.43
	c6.78-5.3,8.69-13.14,10.23-19.43c1.16-4.77,2.25-12.68,3.3-20.33c0.84-6.13,1.63-11.91,2.34-15.01
	c3.28-14.34,9.03-41.29,10.97-53.58c1.34-8.46,2.01-12.71,1.51-18.07c-0.07-0.78-0.16-1.57-0.27-2.35c1.12-0.33,2.2-0.74,3.25-1.25
	c1.17,14.5,1.26,29.06,0.26,43.57c-1.39,21.09-4.41,42.03-9.01,62.66c-0.87-23.6,2.16-44.25,3.51-53.43
	c0.75-5.11,0.77-5.33,0.4-5.81l-0.24-0.31l-0.42-0.05c-0.99-0.1-1.2,0.96-1.43,2.18c-0.18,0.92-0.4,2.29-0.67,4.19
	c-0.53,3.6-1.2,8.66-2.05,15.07c-1.56,11.75-3.69,27.84-6.27,44.72c-1.95,12.76-3.77,23.45-5.1,31.26
	c-0.92,5.45-1.66,9.74-2.08,12.65c-0.58,3.98-0.67,5.29,0.46,5.54c0.99,0.22,1.49-0.54,2.76-4.29c0.8-2.34,1.83-5.73,2.97-9.81
	c2.37-8.46,4.98-18.87,6.97-27.83l0.21-0.95c1.07,11.55,3.44,22.93,7.06,33.95l0.33,0.97c3.12,9.13,4.36,13.54,4.74,15.57
	c-1.42-1.85-3.77-5.75-5.8-9.21c-1.28-2.76-2.8-5.4-4.55-7.88l-0.04-0.08c-0.26-0.43-0.44-0.74-0.58-0.95
	c-0.17-0.26-0.68-1.05-1.47-0.61l-0.36,0.2l-0.1,0.41c-0.1,0.45,0.02,0.63,0.73,1.66c0.09,0.13,0.18,0.26,0.26,0.38
	c0.48,0.83,1.14,1.96,1.77,3.08c0.92,1.6,1.75,3.05,2.51,4.36c2.18,4.78,2.61,8.63,1.29,11.52c-1.21,2.64-4.16,4.94-8.09,6.32
	c-5.2,1.82-11.01,1.66-15.17-0.42c-2.99-1.62-5.45-4.05-7.1-7.01c0-1.3-0.02-2.6-0.06-3.86c-0.47-13.05-4.31-27.42-5.92-28.68
	c-0.24-0.2-0.56-0.28-0.87-0.21c-0.79,0.17-0.96,1.03-1.08,1.98c-0.42,3.29-0.2,11.45,1.61,19.29c0.9,4.18,2.41,8.2,4.46,11.94
	c-0.01,2.92-0.17,5.83-0.48,8.73c-0.73,6.29-1.93,6.74-1.94,6.74s-1.49,0.09-4.91-8.95c-2.1-5.57-4.16-12.45-5.82-17.98
	c-0.76-2.52-1.41-4.7-1.92-6.25C364.38,389.79,364.01,388.66,363.16,388.66L363.16,388.66z M146.63,382.87
	c5.21,10.44,8.64,20.12,10,28.18c1.12,6.67,0.7,11.9-1.17,15.15c-1.97-2.49-3.43-5.35-4.3-8.41
	C148.64,410.04,147.12,398.3,146.63,382.87L146.63,382.87z M336.31,407.44c-1.5,2.53-2.89,5.15-4.18,7.84
	c0.88-5.98,2.17-11.89,3.85-17.7C335.72,400.87,335.84,404.18,336.31,407.44L336.31,407.44z M349.06,392.27
	c-3.56,7.15-6.59,14.55-9.07,22.14l-0.04-0.11c-0.76-2.11-1.33-4.28-1.7-6.48c3.2-5.31,6.51-9.75,9.43-13.68
	C348.16,393.5,348.62,392.88,349.06,392.27L349.06,392.27z M375.7,380.05c2.53,8.14,3.98,16.57,4.31,25.09v0.03
	c-1.35-3.25-2.36-6.63-3.01-10.09C376.01,390.14,375.58,385.09,375.7,380.05L375.7,380.05z M405.96,350.48
	c-0.5,2.27-1,4.52-1.5,6.77c-3.04,13.7-6.94,28.28-9.32,35.75c0.46-2.94,1.12-6.88,1.87-11.28c1.33-7.82,3.15-18.52,5.1-31.3
	c1.27-8.34,2.44-16.48,3.48-24.01C405.3,334.43,405.43,342.47,405.96,350.48L405.96,350.48z M359.64,374
	c-1.3,1.95-2.56,3.93-3.77,5.92c0.29-1.64,0.05-3.33-0.68-4.82c-0.1-0.21-0.21-0.42-0.33-0.62
	C356.48,374.34,358.08,374.18,359.64,374L359.64,374z M349.41,372.96c-8.56,0.35-17.14-0.37-25.52-2.14
	c-10.76-2.23-20.72-5.86-24.17-7.73c3.47,0.2,12.2,1.67,23.52,3.58l0.04,0.01c12.02,2.03,20.61,4.06,25.54,6.04
	C349.03,372.8,349.23,372.88,349.41,372.96L349.41,372.96z M388.3,297.5c0.45,0.4,0.94,0.76,1.47,1.06c1.82,1.15,5.2,3.3,5.35,5.72
	c0.13,2.12-2.23,4.04-3.12,4.75c-8.06,6.51-23.23,4.96-34.54,2.51c-12.55-2.72-23.86-7.3-26.23-8.79v-0.08l-0.17-0.08
	c5.69-0.01,11.33-1.07,16.64-3.12c0.46-0.17,0.89-0.35,1.31-0.52c1-0.06,2.06-0.15,3.26-0.24c1.6-0.13,3.42-0.27,5.67-0.42
	c2.02-0.13,6.22-0.4,14.96-0.6c4.11-0.1,7.37-0.1,10-0.11C385.26,297.57,387.01,297.57,388.3,297.5L388.3,297.5z M226.8,268.76
	c-2.15,11.58-3.23,23.33-3.22,35.1c-0.03,2.03-0.05,3.99-0.15,5.18c-1.61-2.99-5.04-12.92-6.84-28.75
	c-2.49-21.55-0.62-43.38,5.51-64.19c7.35-24.35,19.51-41.78,25.28-48.56l-0.08,0.14c-5.55,9.93-20.29,36.3-22.23,70.55
	C224.47,248.44,225.05,258.69,226.8,268.76z M343.16,299.01c-6.55,1.84-12.31,1.96-14.2,1.51c0.15-0.09,0.32-0.2,0.51-0.3
	c3.07-1.03,6.3-1.54,9.54-1.52c0.92-0.02,1.84,0.04,2.75,0.16C342.18,298.91,342.62,298.97,343.16,299.01L343.16,299.01z
	 M391.12,279.18c0.16,0.07,0.3,0.13,0.42,0.18c2.96,1.31,5.3,3.7,6.53,6.69c1.66,4.33,0.83,9.98-1.63,11.21
	c-1.41,0.7-3.44-0.01-4.94-0.66c0.11-0.16,0.19-0.35,0.23-0.55c0.26-1.31-1.1-1.84-3.36-2.71c-2.43-0.88-4.76-1.99-6.97-3.33
	c0.66-0.13,1.31-0.32,1.94-0.55c0.54-0.22,1.12-0.33,1.71-0.31h0.03c3.62,0,6.16,2.1,8.02,3.63c1.44,1.19,2.68,2.21,3.9,1.45
	c0.65-0.48,1.03-1.26,1.01-2.07c0.22-3.1-2.11-9.06-5.34-11.82C392.17,279.92,391.66,279.54,391.12,279.18L391.12,279.18z
	 M348.58,297.12c-1.19,0.07-2.29,0.11-3.46,0.11c-1.05,0-2.1-0.07-3.13-0.21c-1-0.14-2-0.2-3.01-0.18c-0.17,0-1.61,0.03-3.44,0.21
	c2.32-1.21,5.24-2.78,8.79-4.81c8.98-5.16,13.08-7.52,14.01-8.38c0.06-0.05,6-5.49,10.11-5.88c0.18-0.02,0.36-0.03,0.53-0.04
	c1.34,3.52,3.41,6.71,6.08,9.37c0.43,0.45,0.87,0.87,1.32,1.26c-0.97-0.06-1.94-0.18-2.9-0.34c-2.22-0.49-4.52-0.43-6.71,0.18
	c-4.15,1.19-8.11,2.98-11.75,5.3C352.96,295.01,350.81,296.15,348.58,297.12L348.58,297.12z M389.01,295.59
	c-1.28,0.11-3.5,0.12-6.11,0.13c-2.63,0.01-5.91,0.02-10.04,0.11c-8.78,0.2-13.01,0.47-15.04,0.61c-1.64,0.1-3.04,0.21-4.3,0.31
	c0.86-0.48,1.66-0.96,2.45-1.43c3.5-2.25,7.32-3.97,11.32-5.11c1.93-0.53,3.95-0.57,5.9-0.13c1.8,0.33,3.63,0.45,5.45,0.33
	c2.8,1.96,5.84,3.53,9.06,4.67C388.14,295.24,388.61,295.43,389.01,295.59L389.01,295.59z M386.34,278.19l1.92,1.29
	c1.11,0.68,2.18,1.44,3.19,2.27c2.51,2.14,4.55,6.88,4.7,9.68c0.05,0.4,0.01,0.8-0.13,1.18c-0.63-0.35-1.21-0.78-1.74-1.26
	c-1.96-1.62-4.91-4.06-9.2-4.06h-0.04c-0.79-0.02-1.58,0.12-2.32,0.42c-0.9,0.33-1.83,0.55-2.78,0.67c-0.26,0.04-0.51,0.07-0.75,0.1
	c-0.99-0.76-1.93-1.58-2.8-2.48c-2.29-2.28-4.12-4.99-5.38-7.98c0.96,0.17,1.9,0.4,2.82,0.71l0.49,0.15
	c2.82,0.86,4.52,1.37,6.53,1.05c0.76-0.11,1.5-0.38,2.15-0.8c0.42-0.26,0.87-0.47,1.34-0.62
	C384.98,278.33,385.66,278.22,386.34,278.19L386.34,278.19z M230.4,260.96c0.43,6.08,1.05,11.28,1.52,15.27
	c0.3,2.52,0.59,4.94,0.67,6.46c-1.69-4.03-2.91-8.24-3.63-12.54c-0.09-0.44-0.17-0.91-0.26-1.39
	C229.18,266.23,229.75,263.63,230.4,260.96z M384.11,276.67c-0.11,0.03-0.22,0.06-0.33,0.1c-0.6,0.19-1.18,0.45-1.72,0.79
	c-0.45,0.3-0.96,0.49-1.5,0.56c-1.59,0.26-3.05-0.19-5.7-1l-0.48-0.15c-1.21-0.41-2.46-0.7-3.72-0.86c-0.02,0-0.14-0.02-0.32-0.02
	c-0.34-1.15-0.58-2.33-0.71-3.52l-0.02-0.15c-0.22-1.96-0.81-7.16,2.25-11.46c1.32-1.85,2.69-2.77,5.11-4.19
	c-3.03,3.5-2.28,9.65,0.21,13.59c1.09,1.51,2.41,2.84,3.91,3.94C382.12,275.2,383.12,275.98,384.11,276.67L384.11,276.67z
	 M354.64,249.84c-0.47,0.82-0.79,1.7-0.96,2.63c-0.11,0.89-0.51,1.72-1.15,2.36c-2.17,2.14-7.1,2.83-9.94,0.48
	c-2.66-2.2-1.97-6.65-1.3-10.95l0.03-0.17c0.47-3.01,1.41-5.94,2.77-8.67c3.21-6.48,5.74-10.8,7.65-13.89
	c4.04-5.56,8.49-13.36,6.89-21.43c-0.2-0.99-0.48-1.98-0.76-2.94c-0.79-2.73-1.53-5.31-0.19-7.51c0.94-1.58,2.61-2.6,4.45-2.71
	c2.3,0.06,4.23,2.61,6.67,5.83l0.49,0.64c0.83,1.09,1.37,1.92,2.19,3.17l0.08,0.12c0.23,0.35,0.5,0.77,1.31,2.14
	c-0.56,0.05-1.08,0.32-1.44,0.75c-1.98,2.29,1.42,7,8.1,15.83c7.02,9.27,16.6,21.93,13.45,28.19c0.43-2.38,0.37-4.73-0.22-5.83
	c-0.19-0.4-0.54-0.7-0.96-0.84c-1.22-0.35-1.95,0.86-3.17,2.87c-1.56,2.69-3.4,5.21-5.49,7.52c-2.17,2.36-5.15,5.6-6.75,5.07
	c-0.85-0.28-1.06-1.84-1.3-3.66c-0.33-2.5-0.75-5.62-3.19-7.63c-2.47-2.03-6.74-2.6-10.88-1.44c-3.37,0.94-5.76,2.78-6.56,5.04
	C353.93,246.45,354,248.23,354.64,249.84z M388.03,250.11c-1.04,1.27-2.27,2.37-3.65,3.26c-1.2,0.77-2.54,1.3-3.94,1.55
	c-0.17,0.04-0.33,0.07-0.5,0.11c0.45-0.27,0.93-0.55,1.44-0.86l0.31-0.18C384.21,252.46,386.31,251.2,388.03,250.11L388.03,250.11z
	 M390.27,246.36c-2.02,1.48-5.12,3.36-9.38,5.94c1.26-1.15,2.46-2.37,3.59-3.64c2.17-2.4,4.08-5.02,5.71-7.81
	c0.36-0.6,0.76-1.25,1.06-1.67c0.25,2.08,0.03,4.18-0.62,6.17C390.53,245.7,390.41,246.04,390.27,246.36L390.27,246.36z
	 M367.73,246.22c-1.79,0.63-3.26,1.95-4.09,3.66c-0.29,0.67-0.77,1.24-1.38,1.64c-0.95,0.62-2.11,0.87-3.23,0.69
	c-1.01-0.39-1.83-1.17-2.28-2.16l0.07-0.09c2.55-3.07,6.88-3.47,8.96-3.66C366.43,246.23,367.08,246.21,367.73,246.22L367.73,246.22
	z M240.57,227.08c-2.48,5.1-4.69,10.33-6.62,15.67c-0.79,2.17-1.52,4.32-2.19,6.43c-0.22-19.35,2.59-43.9,15.65-66.39
	c10.47-18.04,27.08-33.86,35.55-40.96c-0.37,0.46-0.76,0.93-1.16,1.42c-5.81,7.5-11.19,15.31-16.12,23.42
	c-1.48-0.06-2.93,0.39-4.12,1.27c-2.09,1.76-3.41,4.28-3.66,7.01c-0.22,1.61-0.15,3.25,0.23,4.83c-0.79,1.48-1.58,2.98-2.37,4.52
	C247.85,199.78,241.72,217.58,240.57,227.08z M367.47,244.36c-0.62,0-1.25,0.03-1.86,0.08c-2,0.18-6.48,0.6-9.55,3.6
	c-0.18-0.87-0.14-1.78,0.12-2.63c0.59-1.67,2.57-3.11,5.31-3.88c3.52-0.98,7.22-0.54,9.2,1.09c0.8,0.69,1.4,1.58,1.73,2.58
	C370.86,244.56,369.17,244.27,367.47,244.36z M350.2,220.57c-1.1,1.51-2.17,2.86-3.07,3.98c-2.31,2.9-9.32,11.71-22.15,15.12
	c-2.86,0.76-17.83,4.13-31.21-4.41c-9.3-5.93-16.76-17.09-19.03-28.42c-0.39-1.95-0.64-4.01-0.88-5.99
	c-0.54-4.41-1.06-8.65-2.99-11.86c3.11-5.56,6.56-11.44,10.19-17.53c1.92-0.62,4.06-1.28,6.35-1.94c-2.16,1.4-4.04,3.18-5.55,5.27
	c-4.68,6.53-5.38,15.9-4.43,18.88c0.13,0.64,0.56,1.18,1.16,1.44c1.13,0.39,1.92-0.68,3.01-2.16c0.35-0.48,0.76-1.03,1.21-1.59
	c4.85-6.01,14.43-12.22,23.99-11.64c4.37,0.33,8.61,1.65,12.38,3.88c2.45,1.35,4.71,3.03,6.72,4.99c-0.53-0.17-1.16-0.4-1.75-0.61
	c-4.08-1.48-11.67-4.23-20.4-2.95c-0.25,0.04-0.49,0.07-0.73,0.12c-6.18-1.17-14.2,4.2-17.15,6.76c-1.6,1.38-2.01,2.05-1.68,2.74
	c0.4,0.84,1.39,0.58,1.99,0.42s1.4-0.41,2.52-0.76c1.25-0.39,2.88-0.9,4.91-1.49c-0.48,2.9,0.24,6.14,2.53,7.89
	c0.14,0.11,0.29,0.21,0.44,0.31c-3.46-0.36-6.88-0.96-10.26-1.81l-0.79-0.2c-2.62-0.67-4.7-1.2-6.18,0.15
	c-3,2.73,0.27,10.3,2.99,15.75c3.11,6.22,6.32,12.65,13.9,17.67c0.58,0.38,14.29,9.27,30.08,4.37c8.88-2.76,14.09-8.51,20.11-15.18
	c2.14-2.26,3.91-4.86,5.22-7.69c1.13-2.71,1.88-5.56,2.26-8.47c0.78,1.32,1.18,2.84,1.16,4.37c0.03,2.88-0.88,4.31-3.31,8.15
	C351.28,218.85,350.76,219.66,350.2,220.57z M410.86,237.19c-0.22,0.04-0.44,0.08-0.66,0.1c-4.78,0.65-11.86-2.06-15.3-3.76
	c-0.39-2.2-1.06-4.35-1.98-6.39c0.87,0.97,1.78,1.94,2.73,2.9c1.83,1.84,4.02,3.28,6.45,4.2c2.68,1.02,5.56,1.41,8.42,1.15
	C410.65,236,410.76,236.6,410.86,237.19L410.86,237.19z M416.05,235.37c-1.08,0.56-2.21,1.03-3.37,1.38
	c-0.09-0.53-0.19-1.07-0.29-1.6c1.18-0.2,2.34-0.51,3.46-0.93l0.11-0.04C415.98,234.58,416.02,234.98,416.05,235.37L416.05,235.37z
	 M352.34,203.03c-0.02,0.23-0.05,0.46-0.08,0.7c-0.3,3.29-1.08,6.51-2.32,9.57c-1.23,2.65-2.89,5.09-4.9,7.22
	c-5.85,6.46-10.9,12.04-19.29,14.65c-14.96,4.64-27.96-3.79-28.5-4.15c-7.16-4.74-10.26-10.95-13.26-16.95
	c-4.97-9.95-4.26-12.76-3.4-13.54c0.75-0.68,2.39-0.26,4.47,0.28c0.26,0.07,0.53,0.14,0.8,0.2c10.71,2.68,19.34,2.42,27.68,2.16
	c5.3-0.16,12.18-1.54,13.14-2.62c0.2-0.21,0.29-0.5,0.27-0.79c-0.09-0.98-0.93-1.22-5.03-1.2c0.55-2.63,1-6.97-1.12-9.78
	c1,0.33,1.91,0.66,2.71,0.95c2.74,1,4.12,1.49,4.76,0.35c0.52-0.93-0.2-2.15-2.41-4.06c-1.8-1.52-3.73-2.87-5.78-4.03
	c-4.02-2.36-8.53-3.77-13.18-4.11c-10.21-0.62-20.4,5.96-25.54,12.32c-0.48,0.6-0.9,1.16-1.26,1.66c-0.31,0.42-0.67,0.91-0.94,1.22
	c-0.71-2.15-0.29-10.91,4.21-17.19c4.98-6.95,13.87-8.98,21.6-9.36c-0.1,0.42-0.19,0.85-0.29,1.27l-0.94,4.12l2.58-3.34
	c0.54-0.7,1.07-1.4,1.59-2.11c3.65-0.01,6.85,0.3,8.97,0.49c6.08,0.57,22.24,2.08,28.3,13.1c0.7,1.27,1.08,2.7,1.1,4.15
	c0.22,2.68,0.72,5.33,1.49,7.9C348.78,195.94,350.31,199.62,352.34,203.03L352.34,203.03z M431.56,170.97l0.93,0.22
	c1.08,0.22,2.09,0.69,2.95,1.39c2.34,1.96,3.12,5.7,2.84,8.33c-0.19,1.78-0.77,2.68-1.21,2.91c-0.28,0.11-0.58,0.15-0.88,0.13
	c-0.81-0.08-1.61,0.21-2.17,0.79c-0.8,0.9-0.65,2.07-0.5,3.19c0.02,0.14,0.04,0.28,0.05,0.43c0.09,0.99,0.09,1.98,0.02,2.97
	c-0.03,0.79-0.07,1.61-0.03,2.43c0.79,16.82-3.73,26.75-3.78,26.85c-2.67,5.58-6.8,10.32-11.96,13.73
	c-0.03-0.32-0.05-0.64-0.08-0.97c5.42-2.79,8.03-7.52,9.21-9.66c1.07-1.93,3.91-7.08,3.04-21.27c-0.82-13.42-1.22-20.15-4.67-25.48
	l-0.09-0.13l0.01-0.13c0.81,1.23,1.47,2.48,2.05,3.56c1.31,2.46,2.35,4.4,4.11,4.11c1.66-0.27,2.46-2.45,2.84-3.5
	c0.56-1.62,0.61-3.36,0.14-5.01c-0.42-1.47-1.12-2.85-2.08-4.05C432.07,171.53,431.82,171.25,431.56,170.97L431.56,170.97z
	 M410.13,233.57c-2.5,0.2-5.01-0.16-7.36-1.05c-2.18-0.83-4.16-2.12-5.8-3.78c-7.44-7.5-13.04-16.63-16.36-26.66
	c2.77,0.3,5.58,0.01,8.23-0.84c1.74-0.56,5.25-1.69,7.37-4.83c1.48-0.8,2.86-1.76,4.12-2.88c-0.41,1.02-0.86,2.04-1.34,3.06
	l-0.07,0.14c-0.74,1.56-2.28,4.8-1.27,8.25c0.34,1.13,0.9,2.17,1.65,3.08l0.03,0.03C402.22,211.7,407.58,222.49,410.13,233.57
	L410.13,233.57z M415.78,232.25c-0.2,0.08-0.39,0.16-0.6,0.24c-1.03,0.38-2.1,0.67-3.18,0.85c-2.73-12.15-8.66-23.2-11.22-26.41
	l-0.03-0.04c-0.59-0.72-1.04-1.55-1.31-2.44c-0.81-2.77,0.48-5.48,1.17-6.93l0.07-0.15c1.18-2.51,2.2-5.1,3.03-7.75
	c0.3-0.48,0.54-0.99,0.73-1.53c0.16-0.44,0.2-0.91,0.11-1.36c0.98-3.59,1.59-7.28,1.81-10.99c0.03-0.64,0.08-1.63,0.04-2.88
	c2.59,7.03,4.74,17.27,6.22,30.04C413.9,214.09,414.99,223.49,415.78,232.25L415.78,232.25z M248.94,225.4
	c-4.16,6.27-5.8,6.86-6.22,6.89c-0.05,0-0.08,0-0.15-0.11c-0.38-0.59-0.5-2.1-0.22-4.5c1.01-2.06,2.04-4,3.06-5.8
	c3.61-6.35,5.67-8.17,6.34-8.44C252.1,214.7,250.53,220.06,248.94,225.4z M425.01,180.3c2.07,4.7,2.46,11.12,3.13,22.26
	c0.83,13.66-1.82,18.46-2.82,20.26c-1.74,3.51-4.43,6.47-7.76,8.54c-0.78-8.57-1.85-17.78-3.11-28.67
	c-1.24-10.68-3.78-26.5-8.55-35.52c0.5,0.04,0.92,0.08,1.22,0.13c2.35,0.26,4.68,0.72,6.95,1.38c3.54,2.15,6.62,4.99,9.04,8.36
	c-0.04,2.95-0.22,5.89-0.56,8.81v0.01l-0.06,0.42l0.27,0.35l0.89,1.03l0.63-1.21c0.03-0.1,0.06-0.21,0.07-0.31h0.03
	C424.47,185.68,424.75,183.64,425.01,180.3z M373.94,200.8c0.58,1.01,1.31,2.28,2.25,3.92c1.33,2.34,2.4,4.24,3.29,5.8
	c3.29,5.83,4.07,7.22,5.99,9.5c0.81,0.96,1.42,1.61,1.96,2.19c0.9,0.89,1.68,1.89,2.35,2.97c1.18,1.91,2.09,3.97,2.71,6.12
	c-2.89-5.57-7.45-11.58-11.49-16.92c-2.6-3.44-5.06-6.68-6.6-9.2c-2.09-3.41-1.68-4.17-1.57-4.29
	C372.95,200.72,373.38,200.71,373.94,200.8L373.94,200.8z M251.87,211.53c-1.03,0-3.22,1.07-7.71,8.81
	c-0.22,0.38-0.45,0.77-0.67,1.17c0.42-1.78,0.95-3.78,1.61-5.99c3.22-10.47,7.34-20.63,12.31-30.38c0.52-1.02,1.05-2.03,1.58-3.03
	c0.23,0.44,0.5,0.86,0.8,1.25c1.03,1.27,2.44,2.17,4.03,2.55c0.91,0.27,1.79,0.65,2.61,1.13c0.87,0.54,1.64,1.24,2.26,2.06
	c-2.23,4.01-4.27,7.86-6.08,11.5c-4.1,8.28-7.4,14.4-10.04,18.93c1.35-5,1.53-7.32-0.13-7.89
	C252.25,211.57,252.06,211.54,251.87,211.53z M378.57,201.79c1.6,5.22,3.83,10.21,6.66,14.88c-0.96-1.42-2-3.26-4.14-7.05
	c-0.89-1.57-1.96-3.48-3.29-5.81c-0.53-0.94-1-1.76-1.42-2.48C377.04,201.47,377.78,201.64,378.57,201.79L378.57,201.79z
	 M362.01,185.17c-2.45,0.14-4.67,1.49-5.92,3.6c-1.77,2.9-0.88,6-0.01,9c0.27,0.92,0.54,1.88,0.72,2.79
	c0.44,2.33,0.39,4.73-0.15,7.04c-0.42-1.62-1.14-3.15-2.11-4.52c-0.1-0.16-0.2-0.32-0.3-0.48c0.25-2.91,0.3-5.84,0.13-8.76
	c-0.14-3.46-0.23-5.54,1.42-7.83c1.11-1.46,2.55-2.64,4.2-3.45c1.45-0.75,4.86-2.52,7.67-1.06c1.45,0.82,2.53,2.17,3.02,3.76
	c0.3,0.81,0.43,1.68,0.36,2.54c-0.04,0.63,0.01,1.27,0.14,1.88c0.6,1.87,1.84,3.46,3.5,4.5c0.55,2.04,1.56,3.93,2.95,5.52
	c-0.43-0.1-0.85-0.19-1.24-0.29c-0.44-0.1-0.87-0.21-1.27-0.29c-1.36-2.35-1.73-2.91-2.02-3.36l-0.08-0.12
	c-0.81-1.24-1.4-2.14-2.27-3.28l-0.48-0.64c-2.64-3.47-4.91-6.47-8.1-6.56C362.11,185.17,362.06,185.17,362.01,185.17L362.01,185.17
	z M321.25,200.41c-2.56,0.51-5.16,0.81-7.78,0.9c-3.23,0.1-6.51,0.2-9.93,0.13c2.79-0.85,5.02-2.96,6.02-5.7
	c0.6-2.24,0.23-4.63-1.02-6.59c6.07-1.23,8.6-1.36,10.26,0.17c2.73,2.52,1.48,8.23,1.03,9.93l-0.31,1.18l1.22-0.02L321.25,200.41z
	 M391.26,198.29c-0.96,0.48-1.96,0.87-2.98,1.18c-2.66,0.86-5.47,1.09-8.23,0.68c-0.08-0.32-0.13-0.49-0.13-0.51l-0.06-0.26
	l-0.18-0.19c-1.04-1.06-1.9-2.29-2.54-3.63c0.48,0.21,0.98,0.41,1.5,0.59c0.4,0.14,0.81,0.26,1.21,0.35
	C382.72,199.76,387.94,199.14,391.26,198.29z M306.6,189.56c1.23,1.6,1.67,3.68,1.19,5.64c-0.88,2.23-2.75,3.91-5.05,4.55
	c-1.8,0.72-3.85,0.53-5.48-0.52c-1.92-1.47-2.34-4.52-1.64-6.99C298.6,191.42,302.26,190.49,306.6,189.56z M365.25,179.07
	c-2.15,0.12-4.24,0.75-6.11,1.84c-1.91,0.93-3.57,2.31-4.85,4.01c-2.03,2.81-1.93,5.4-1.78,8.99c0.07,1.6,0.14,3.47,0.06,5.72
	c-1.26-2.58-2.28-5.26-3.03-8.03c-0.74-2.46-1.21-5-1.42-7.56c-0.04-1.71-0.49-3.38-1.32-4.88c-2.33-4.03-5.84-7.26-10.05-9.24
	c2.12,0.63,4.27,1.23,6.37,1.77c3.39,2.29,6.78,4.01,8.75,2.54c0.21-0.16,0.4-0.35,0.56-0.56c1.72,0.29,3.47,0.4,5.21,0.35
	l0.49-0.03c1.18-0.1,2.36-0.13,3.54-0.1c2.4,0.05,4.79,0.26,7.16,0.62c1.9,0.4,3.86,0.41,5.77,0.04c0.19,0.49,0.42,0.96,0.67,1.42
	c0.18,0.33,0.57,1.02,1.3,0.92c0.89-0.12,0.89-1.1,0.89-1.47s-0.02-0.85-0.05-1.41c-0.01-0.13-0.01-0.26-0.02-0.39
	c1.09-0.54,2.11-1.21,3.05-1.99c0.51-0.39,1.04-0.8,1.66-1.24c0.88-0.16,1.66-0.65,2.17-1.38c0.47-0.26,0.97-0.54,1.53-0.82
	c3.35-1.72,6.94-2.95,10.64-3.64c1.79-0.27,3.61-0.32,5.42-0.13c0.22,0.26,0.45,0.53,0.67,0.83c-5.23,0.12-10.37,1.41-15.04,3.77
	c-5.16,2.65-11.8,8.2-10.45,10.85c0.47,0.92,1.41,0.91,2.71,0.9c1.88-0.03,3.77,0.08,5.63,0.33c2.45,0.24,4.83,0.93,7.03,2.02
	l0.16,0.08c0.23,0.12,0.38,0.19,0.46,0.24c0.83,0.59,1.49,1.37,1.94,2.28l-0.08-0.02c-3.16-0.76-5.22-1.31-6.72-1.71
	c-1.51-0.54-3.09-0.82-4.69-0.84c-2.9,0.14-6.56,1.59-8.21,4.54c-0.63,1.16-0.96,2.45-0.96,3.76c-0.64-0.61-1.1-1.38-1.36-2.22
	c-0.09-0.46-0.12-0.93-0.09-1.4c0.07-1.1-0.09-2.2-0.47-3.23c-0.65-2.03-2.04-3.73-3.91-4.76
	C367.5,179.32,366.38,179.06,365.25,179.07L365.25,179.07z M394.92,194.99c-0.62,0.31-1.25,0.58-1.9,0.82
	c-0.68,0.24-5.39,1.87-8.97,1.04c1.32-0.11,2.57-0.6,3.62-1.4c2.18-1.76,3.47-5.52,1.85-8.11c-0.37-0.58-0.86-1.08-1.44-1.46
	c1.48,0.4,3.47,0.93,6.4,1.63c0.62,0.15,0.9,0.21,1.28,0.28c0.62,2.35,0.35,4.84-0.74,7.01
	C394.99,194.86,394.96,194.93,394.92,194.99z M384.29,186.66c0.25,0,0.5,0.02,0.74,0.05c1.16,0.09,2.23,0.68,2.92,1.61
	c1.06,1.69,0.09,4.44-1.45,5.68c-1.26,1.02-3.29,1.31-5.61,0.84c-1.28-1.84-1.86-5.18,0.06-6.99
	C381.88,187.05,383.07,186.63,384.29,186.66L384.29,186.66z M381.38,185.39c-0.62,0.27-1.2,0.64-1.69,1.11
	c-2.03,1.9-2.22,5.04-1.26,7.59c-0.73-0.3-1.44-0.65-2.11-1.07c-0.32-1.5-0.1-3.06,0.61-4.42
	C377.94,186.99,379.53,185.84,381.38,185.39L381.38,185.39z M402.01,188.82c-1.2,1.77-2.71,3.31-4.45,4.56
	c0.43-1.76,0.48-3.59,0.13-5.37c1.44,0.06,2.89-0.06,4.3-0.36c0.12-0.02,0.26-0.05,0.39-0.07
	C402.26,187.99,402.14,188.4,402.01,188.82L402.01,188.82z M294.19,190.72c-2.57,0.73-4.59,1.36-6.06,1.82l-0.22,0.07
	c2.54-1.99,5.36-3.6,8.36-4.78c-0.55,0.46-1.03,1-1.41,1.6C294.6,189.84,294.37,190.27,294.19,190.72L294.19,190.72z M305.07,187.99
	c-3.17,0.7-5.97,1.39-8.38,2.04c0.61-0.81,2.11-2.22,6.3-3c0.67,0.16,1.31,0.43,1.88,0.81C304.94,187.89,305,187.94,305.07,187.99
	L305.07,187.99z M311.57,186.71c-1.26,0.2-2.67,0.48-4.26,0.81c-0.3-0.32-0.63-0.63-0.98-0.9
	C308.08,186.5,309.83,186.53,311.57,186.71L311.57,186.71z M278.37,172.36c-3.08,5.18-6.02,10.2-8.71,15
	c-0.66-0.74-1.42-1.37-2.26-1.89c-0.94-0.56-1.95-1-2.99-1.31c-1.24-0.27-2.35-0.95-3.15-1.93c-0.5-0.67-0.89-1.42-1.14-2.21
	c2.21-4.08,4.45-7.93,6.61-11.49l0.49,0.01c1.98,0.05,3.96-0.03,5.92-0.26c2.91-0.34,5.76-1.03,8.51-2.04
	c-4.06,1.76-7.88,4.03-11.36,6.78c-0.32,0.27-0.46,0.7-0.36,1.1l0.12,0.38l0.36,0.19c0.48,0.24,0.61,0.2,4.09-1
	C275.59,173.31,276.89,172.86,278.37,172.36L278.37,172.36z M402.91,185.65c-0.42,0.03-0.84,0.09-1.25,0.18
	c-1.47,0.32-2.99,0.42-4.49,0.29c-0.56-1.69-1.64-3.16-3.08-4.21c-0.21-0.13-0.42-0.25-0.65-0.36l-0.16-0.08
	c-2.39-1.19-4.98-1.94-7.64-2.21c-1.95-0.26-3.92-0.37-5.88-0.34c-0.39,0-0.79,0.01-1.03-0.01c0.22-1.3,4.16-5.42,9.62-8.23
	c4.76-2.4,10.02-3.63,15.35-3.58c0.14,0.53,0.26,1.1,0.38,1.69c0.42,2.27,0.56,4.58,0.42,6.88
	C404.3,179.03,403.76,182.38,402.91,185.65L402.91,185.65z M427.84,170.07c1.11,0.87,2.12,1.85,3.03,2.93
	c0.78,0.99,1.36,2.12,1.72,3.32c0.38,1.28,0.35,2.65-0.08,3.92c-0.73,1.99-1.22,2.27-1.4,2.3c-0.46,0.07-1.53-1.94-2.17-3.15
	c-0.99-2-2.18-3.89-3.55-5.64c0.05-1.33,0.08-2.76,0.1-4.28C426.22,169.66,427,169.86,427.84,170.07L427.84,170.07z M264.49,168.63
	c-1.6,2.65-3.23,5.46-4.86,8.4c-0.01-0.61,0.02-1.22,0.1-1.83c0.19-2.23,1.24-4.31,2.94-5.77
	C263.2,169.02,263.82,168.74,264.49,168.63z M423.14,174.02L423.14,174.02l-0.04-0.04L423.14,174.02z M373.98,172.77
	c-1.62,0.27-3.27,0.23-4.88-0.11c-2.44-0.37-4.9-0.58-7.37-0.64c-1.24-0.03-2.49,0-3.72,0.1c-0.17,0.01-0.33,0.02-0.47,0.03
	c-1.47,0.05-2.95-0.04-4.4-0.27c0.43-2.46-0.51-6.04-2.14-8.77c-2.79-4.69-8.58-6.83-14.95-7.66c2.71-2.89,5.16-6.01,7.34-9.33
	c5.8-8.85,7.72-16.2,11.27-30.42c0.03,1.38,0.08,2.67,0.13,3.87c0.13,2.81,0.32,5.18,0.54,6.87c0.3,2.24,0.61,3.33,1.57,3.42
	c1.04,0.1,1.44-1.07,1.87-2.62c0.34-1.24,0.74-3.04,1.19-5.35c0.8-4.15,1.74-10.01,2.66-16.51c0.98-6.94,1.85-13.98,2.39-19.31
	c0.28-2.81,0.46-5.03,0.52-6.6c0.09-2.12,0.09-3.33-0.93-3.53s-1.46,0.84-2.34,3.61c-0.58,1.8-1.31,4.35-2.25,7.8
	c-1.03,3.82-2.18,8.26-3.32,12.72c0.57-12.71,2.15-22.6,4.42-27.5c0.97-2.09,2.08-3.31,3.2-3.52c1.14-0.21,2.74,0.49,4.5,1.99
	c6.63,5.66,15.55,22.89,15.05,40.54c-0.5,17.63-10.29,32.16-15.54,39.97c-3.07,4.56-4.47,6.64-3.01,7.71
	c0.4,0.27,0.9,0.37,1.38,0.26c2.85-0.49,9.84-6.44,14.57-13.39c1.41-2.11,2.69-4.31,3.82-6.59c1.04-2.02,1.95-3.76,2.65-3.76h0.02
	c0.6,0.03,1.13,1.7,1.79,3.81c0.92,3.09,2.07,6.1,3.46,9c0.9,1.85,1.91,3.65,3.04,5.37c-1.36-0.39-2.23-0.62-2.42-0.67
	c-3.2-0.94-6.59-1.04-9.83-0.27c-1.72,0.41-5.75,1.38-8.35,4.54C371.84,161.92,372.66,168.54,373.98,172.77L373.98,172.77z
	 M334.42,157.13c11.47,1.02,13.95,5.2,14.98,6.93c1.4,2.25,2.07,4.89,1.91,7.54c-2.26-0.4-4.8-0.97-7.43-1.65
	c-0.8-0.54-1.48-1.04-1.94-1.37c-0.33-0.24-0.63-0.46-0.88-0.63c-5.31-3.72-12.6-5.59-21.77-5.6c-0.31-0.1-0.58-0.19-0.82-0.26
	c-2.15-0.67-4.36-1.15-6.6-1.44c0.54-0.85,1.07-1.7,1.59-2.56c5.86-0.87,11.79-1.26,17.71-1.15c-0.23,0.49-0.47,0.98-0.71,1.46
	l-2.14,4.36l3.6-3.26C332.78,158.73,333.61,157.94,334.42,157.13L334.42,157.13z M379.76,169.8c-0.15,0.12-0.3,0.23-0.45,0.35
	c-0.62,0.5-1.28,0.97-1.96,1.39c0-1.91,0.17-3.02,0.49-3.29c0.29,0.18,0.56,0.39,0.79,0.63
	C378.99,169.22,379.37,169.53,379.76,169.8L379.76,169.8z M422.98,168.8c0.05,0.9,0.09,1.77,0.11,2.62
	c-2.42-2.02-5.23-3.53-8.25-4.43c-3.28-2-6.9-3.39-10.68-4.11c-0.96-1.95-2.12-3.8-3.46-5.52c3.48,1.13,7.79,2.63,12.11,4.44
	c0.4,1.83,1.5,3.43,3.06,4.46C417,166.97,419.09,167.74,422.98,168.8L422.98,168.8z M377.83,166.38c-0.18,0-0.36,0.03-0.53,0.08
	c-1.43,0.45-1.79,2.35-1.81,4.87c-0.99-3.67-1.55-9.04,1.37-12.59c2.2-2.68,5.8-3.54,7.34-3.91c2.94-0.69,6.01-0.6,8.91,0.26
	c0.08,0.02,1.85,0.49,4.6,1.33c0.38,0.52,0.74,1.02,1.1,1.5c0.88,1.2,1.7,2.3,2.42,3.46c-0.86-0.6-1.84-0.98-2.88-1.13l-0.22-0.03
	c-1.88-0.25-7.59-1-11.42,2.36c-1.13,1.06-2.08,2.3-2.82,3.67c-0.32,0.53-0.59,0.98-0.86,1.34c-0.57,0.34-1.08,0.66-1.53,0.96
	c-0.62-0.18-1.18-0.54-1.6-1.03C379.37,166.9,378.64,166.49,377.83,166.38L377.83,166.38z M279.83,169.92
	c-1.22,0.4-2.34,0.77-3.36,1.12c1.16-0.68,2.49-1.41,3.98-2.16C280.24,169.23,280.03,169.58,279.83,169.92L279.83,169.92z
	 M305.7,163.49c-0.32,0.05-0.65,0.1-0.98,0.15c-7.52,1.29-14.94,3.1-22.21,5.42c0.32-0.53,0.64-1.07,0.96-1.61
	c1.11-0.49,2.28-0.98,3.5-1.44c6.07-2.39,12.52-3.69,19.05-3.85C305.91,162.61,305.8,163.05,305.7,163.49L305.7,163.49z
	 M326.07,164.61c4.33,0.44,8.52,1.74,12.33,3.84C333.97,167.17,329.6,165.77,326.07,164.61L326.07,164.61z M422.85,166.68l0.01,0.16
	c-2.07-0.48-4.08-1.2-5.98-2.15c-0.72-0.46-1.3-1.11-1.68-1.87C417.81,163.97,420.36,165.26,422.85,166.68L422.85,166.68z
	 M319,164.21c0.67,0.22,1.48,0.49,2.42,0.81s1.98,0.66,3.1,1.03c-3.01-0.54-5.66-0.79-7.46-0.95c-1.53-0.14-3.59-0.34-5.98-0.44
	C313.71,164.38,316.35,164.23,319,164.21L319,164.21z M399.39,162.45c-1.07,0.01-2.15,0.09-3.21,0.26
	c-3.41,0.62-6.73,1.69-9.87,3.17c0.45-0.71,1-1.35,1.62-1.91c3.2-2.8,8.29-2.13,9.96-1.91l0.24,0.03
	C398.56,162.15,398.98,162.27,399.39,162.45L399.39,162.45z M405,164.92c0.59,0.13,1.17,0.29,1.76,0.46c-0.45-0.04-1-0.09-1.65-0.12
	C405.07,165.15,405.03,165.04,405,164.92L405,164.92z M415.59,137.92c4.3,8.65,6.25,18.21,7.06,26.51c-2.67-1.47-5.42-2.81-8.23-4
	c-0.59-3.15-0.14-7.55,0.38-12.6C415.13,144.64,415.46,141.34,415.59,137.92L415.59,137.92z M307.98,163.16l-0.31,0.04
	c0.08-0.34,0.17-0.67,0.25-1.01c0.23,0.01,0.47,0.02,0.71,0.03C308.41,162.54,308.2,162.85,307.98,163.16z M312.67,162.65
	c-0.73,0.06-1.48,0.13-2.24,0.22l0.32-0.47C311.39,162.46,312.03,162.55,312.67,162.65L312.67,162.65z M307.25,157.26
	c-7.03,1.43-13.98,3.23-20.83,5.38l-0.06,0.02c0.53-0.87,1.06-1.75,1.59-2.63c2.65-4.39,5.39-8.93,8.11-13.5
	c6.01-10.09,12.78-20.9,18.09-28.92c6.88-10.38,9.91-13.97,11.2-15.22c-0.45,1.75-1.76,5.18-3.22,9.02
	c-1.49,3.91-3.35,8.78-5.36,14.54C313.15,136.26,309.96,146.76,307.25,157.26L307.25,157.26z M306.39,160.31
	c-2.02,0-4.03,0.13-6.03,0.39c2.08-0.51,4.24-1,6.38-1.44c-0.09,0.35-0.18,0.7-0.26,1.05H306.39z M311.08,158.45
	c-0.41,0.67-0.84,1.33-1.27,1.99c-0.48-0.04-0.96-0.07-1.44-0.09c0.12-0.5,0.25-0.99,0.38-1.49
	C309.54,158.72,310.31,158.58,311.08,158.45L311.08,158.45z M328.62,155.01c-4.67,0.05-9.33,0.39-13.95,1.05
	c5-8.74,7.19-15.52,9.51-22.68c1.01-3.13,2.06-6.37,3.37-9.82c3.07-8,6.86-15.71,11.31-23.04c5.16-8.32,7.7-9.72,8.18-9.55
	c0.02,0.01,1.76,0.97,0.01,13.26c-1.27,8.36-3.05,16.63-5.34,24.77c-2.52,8.94-5.75,17.66-9.65,26.09
	C330.9,155.04,329.75,155.01,328.62,155.01L328.62,155.01z M401.25,92.73c1.27,1.41,4.12,5.85,6.93,13.2
	c3.08,8,4.93,16.42,5.48,24.98l-0.18-0.27c-1.94-2.83-3.66-5.79-5.16-8.88C402.12,108.89,400.81,96.02,401.25,92.73z M363.51,81.69
	c-0.34,4.46-1.16,11.94-2.43,21.19c-1.6,11.62-3.03,19.62-3.94,23.24c-0.57-5.85-0.8-11.73-0.69-17.61
	C358.56,100.17,361.62,88.04,363.51,81.69L363.51,81.69z"/>
</svg>
